<?xml version="1.0" encoding="UTF-8" standalone="no"?>
<!-- Created with Inkscape (http://www.inkscape.org/) -->

<svg
   xmlns:dc="http://purl.org/dc/elements/1.1/"
   xmlns:cc="http://creativecommons.org/ns#"
   xmlns:rdf="http://www.w3.org/1999/02/22-rdf-syntax-ns#"
   xmlns:svg="http://www.w3.org/2000/svg"
   xmlns="http://www.w3.org/2000/svg"
   xmlns:sodipodi="http://sodipodi.sourceforge.net/DTD/sodipodi-0.dtd"
   xmlns:inkscape="http://www.inkscape.org/namespaces/inkscape"
   width="83.521889mm"
   height="32.000111mm"
   viewBox="0 0 83.521889 32.000111"
   version="1.1"
   id="svg8"
   inkscape:version="0.92.1 r15371"
   sodipodi:docname="logo-color.svg">
  <defs
     id="defs2" />
  <sodipodi:namedview
     id="base"
     pagecolor="#ffffff"
     bordercolor="#666666"
     borderopacity="1.0"
     inkscape:pageopacity="0.0"
     inkscape:pageshadow="2"
     inkscape:zoom="3.959798"
     inkscape:cx="152.13456"
     inkscape:cy="65.932632"
     inkscape:document-units="mm"
     inkscape:current-layer="layer1"
     showgrid="false"
     inkscape:window-width="1920"
     inkscape:window-height="1001"
     inkscape:window-x="-9"
     inkscape:window-y="-9"
     inkscape:window-maximized="1" />
  <metadata
     id="metadata5">
    <rdf:RDF>
      <cc:Work
         rdf:about="">
        <dc:format>image/svg+xml</dc:format>
        <dc:type
           rdf:resource="http://purl.org/dc/dcmitype/StillImage" />
        <dc:title></dc:title>
      </cc:Work>
    </rdf:RDF>
  </metadata>
  <g
     inkscape:label="Layer 1"
     inkscape:groupmode="layer"
     id="layer1"
     transform="translate(-35.00466,-110.92725)">
    <g
       aria-label="SQUIDD"
       transform="matrix(0.43259056,0,0,0.43259056,-22.227538,-90.757153)"
       style="font-style:normal;font-weight:normal;font-size:40px;line-height:1.25;font-family:sans-serif;letter-spacing:0px;word-spacing:0px;fill:#000000;fill-opacity:1;stroke:none"
       id="flowRoot4485">
      <path
         d="m 177.75484,535.59788 q -1.04,-1.28 -1.04,-2.28 0,-1.04 1.72,-2.72 1,-0.96 2.12,-0.96 1.12,0 3.12,2 0.56,0.68 1.6,1.32 1.04,0.6 1.92,0.6 3.72,0 3.72,-3.04 0,-0.92 -1.04,-1.52 -1,-0.64 -2.52,-0.92 -1.52,-0.28 -3.28,-0.88 -1.76,-0.64 -3.28,-1.48 -1.52,-0.84 -2.56,-2.64 -1,-1.84 -1,-4.4 0,-3.52 2.6,-6.12 2.64,-2.64 7.16,-2.64 2.4,0 4.36,0.64 2,0.6 2.76,1.24 l 1,0.76 q 1.24,1.16 1.24,1.96 0,0.8 -0.96,2.2 -1.36,2 -2.8,2 -0.84,0 -2.08,-0.8 -0.12,-0.08 -0.48,-0.4 -0.32,-0.32 -0.6,-0.52 -0.84,-0.52 -2.16,-0.52 -1.28,0 -2.16,0.64 -0.84,0.6 -0.84,1.72 0,1.08 1,1.76 1.04,0.68 2.56,0.92 1.52,0.24 3.32,0.76 1.8,0.48 3.32,1.2 1.52,0.72 2.52,2.52 1.04,1.76 1.04,4.36 0,2.6 -1.04,4.6 -1.04,1.96 -2.72,3.04 -3.24,2.12 -6.92,2.12 -1.88,0 -3.56,-0.44 -1.68,-0.48 -2.72,-1.16 -2.12,-1.28 -2.96,-2.48 z"
         style="font-style:normal;font-variant:normal;font-weight:normal;font-stretch:normal;font-family:'Fredoka One';-inkscape-font-specification:'Fredoka One';fill:#084b63;fill-opacity:1"
         id="path4577" />
      <path
         d="m 227.59422,531.75788 q 1.84,1.24 2.64,1.8 1.44,1.08 1.44,2.08 0,0.96 -1.2,2.72 -1.2,1.76 -2.44,1.76 -0.76,0 -2.32,-1.08 -0.2,-0.12 -1.12,-0.76 -0.92,-0.64 -1.44,-0.96 -3.72,2.88 -8.36,2.88 -6.2,0 -10.48,-4.4 -4.24,-4.4 -4.24,-10.48 0,-3.32 1.2,-6.2 1.2,-2.92 3.2,-4.88 2,-1.96 4.6,-3.08 2.6,-1.12 5.36,-1.12 5.92,0 10.28,4.28 4.36,4.28 4.36,10.84 0,3.32 -1.48,6.6 z m -20.44,-6.64 q 0,3.56 2.28,5.8 2.32,2.2 5.16,2.2 2.84,0 5.12,-2.16 2.28,-2.16 2.28,-5.8 0,-3.64 -2.32,-5.84 -2.28,-2.2 -5.12,-2.2 -2.84,0 -5.12,2.24 -2.28,2.2 -2.28,5.76 z"
         style="font-style:normal;font-variant:normal;font-weight:normal;font-stretch:normal;font-family:'Fredoka One';-inkscape-font-specification:'Fredoka One';fill:#084b63;fill-opacity:1"
         id="path4579" />
      <path
         d="m 251.47484,511.47788 q 0.4,-0.64 1.16,-0.88 0.76,-0.24 1.88,-0.24 1.16,0 1.84,0.2 0.68,0.2 1.04,0.48 0.36,0.28 0.52,0.84 0.24,0.68 0.24,2.08 v 12.08 q 0,5.28 -3.28,9.6 -1.6,2.04 -4.12,3.32 -2.52,1.24 -5.6,1.24 -3.04,0 -5.56,-1.28 -2.48,-1.28 -4.04,-3.36 -3.24,-4.24 -3.24,-9.6 v -12.04 q 0,-0.96 0.04,-1.4 0.08,-0.48 0.4,-1.08 0.32,-0.6 1.08,-0.84 0.76,-0.24 2.04,-0.24 1.28,0 2.04,0.24 0.76,0.24 1.04,0.84 0.48,0.92 0.48,2.52 v 12 q 0,2.44 1.2,4.64 0.6,1.12 1.8,1.8 1.2,0.68 2.84,0.68 2.92,0 4.36,-2.16 1.44,-2.16 1.44,-5 v -12.24 q 0,-1.56 0.4,-2.2 z"
         style="font-style:normal;font-variant:normal;font-weight:normal;font-stretch:normal;font-family:'Fredoka One';-inkscape-font-specification:'Fredoka One';fill:#084b63;fill-opacity:1"
         id="path4581" />
      <path
         d="m 261.37734,513.91788 q 0,-0.92 0.04,-1.36 0.08,-0.48 0.4,-1.08 0.56,-1.08 3.12,-1.08 2.8,0 3.32,1.48 0.2,0.68 0.2,2.08 v 22.24 q 0,0.96 -0.08,1.4 -0.04,0.44 -0.36,1.04 -0.56,1.08 -3.12,1.08 -2.8,0 -3.28,-1.52 -0.24,-0.64 -0.24,-2.04 z"
         style="font-style:normal;font-variant:normal;font-weight:normal;font-stretch:normal;font-family:'Fredoka One';-inkscape-font-specification:'Fredoka One';fill:#084b63;fill-opacity:1"
         id="path4583" />
      <path
         d="m 275.24984,510.35788 7.4,0.04 q 5.8,0 10.2,4.2 4.4,4.16 4.4,10.28 0,6.08 -4.32,10.44 -4.28,4.36 -10.4,4.36 h -7.32 q -2.44,0 -3.04,-1 -0.48,-0.84 -0.48,-2.56 v -22.24 q 0,-0.96 0.04,-1.4 0.08,-0.44 0.4,-1.04 0.56,-1.08 3.12,-1.08 z m 7.4,22.24 q 2.88,0 5.2,-2.12 2.32,-2.16 2.32,-5.4 0,-3.24 -2.28,-5.4 -2.24,-2.2 -5.28,-2.2 h -3.84 v 15.12 z"
         style="font-style:normal;font-variant:normal;font-weight:normal;font-stretch:normal;font-family:'Fredoka One';-inkscape-font-specification:'Fredoka One';fill:#084b63;fill-opacity:1"
         id="path4585" />
      <path
         d="m 303.37484,510.35788 7.4,0.04 q 5.8,0 10.2,4.2 4.4,4.16 4.4,10.28 0,6.08 -4.32,10.44 -4.28,4.36 -10.4,4.36 h -7.32 q -2.44,0 -3.04,-1 -0.48,-0.84 -0.48,-2.56 v -22.24 q 0,-0.96 0.04,-1.4 0.08,-0.44 0.4,-1.04 0.56,-1.08 3.12,-1.08 z m 7.4,22.24 q 2.88,0 5.2,-2.12 2.32,-2.16 2.32,-5.4 0,-3.24 -2.28,-5.4 -2.24,-2.2 -5.28,-2.2 h -3.84 v 15.12 z"
         style="font-style:normal;font-variant:normal;font-weight:normal;font-stretch:normal;font-family:'Fredoka One';-inkscape-font-specification:'Fredoka One';fill:#084b63;fill-opacity:1"
         id="path4587" />
    </g>
    <g
       id="g4575"
       transform="matrix(0.07980077,0,0,0.07980077,26.984683,110.92725)">
      <g
         id="XMLID_826_">
        <path
           d="m 275.5,330 c -11.028,0 -20,-8.972 -20,-20 V 200 h -55 -55 v 110 c 0,11.028 -8.972,20 -20,20 h -25 v 30 h 25 c 19.768,0 36.89,-11.532 45,-28.221 V 351 c 0,11.028 -8.972,20 -20,20 v 30 c 27.57,0 50,-22.43 50,-50 0,27.57 22.43,50 50,50 v -30 c -11.028,0 -20,-8.972 -20,-20 v -19.221 c 8.11,16.689 25.232,28.221 45,28.221 h 25 v -30 z"
           style="fill:#9dd7f5"
           id="XMLID_827_"
           inkscape:connector-curvature="0" />
        <path
           d="m 255.5,200 v 110 c 0,11.028 8.972,20 20,20 h 25 v 30 h -25 c -19.768,0 -36.89,-11.532 -45,-28.221 V 351 c 0,11.028 8.972,20 20,20 v 30 c -27.57,0 -50,-22.43 -50,-50 V 200 Z"
           style="fill:#78b9eb"
           id="XMLID_828_"
           inkscape:connector-curvature="0" />
        <g
           id="XMLID_829_">
          <circle
             r="10"
             cy="250"
             cx="175.5"
             style="fill:#001b3c"
             id="XMLID_830_" />
        </g>
        <g
           id="XMLID_831_">
          <circle
             r="10"
             cy="250"
             cx="225.5"
             style="fill:#001b3c"
             id="XMLID_832_" />
        </g>
        <g
           id="XMLID_833_">
          <path
             d="m 200.5,0 c 0,0 -80,60 -80,80 0,20 50,60 50,60 z"
             style="fill:#9dd7f5"
             id="XMLID_834_"
             inkscape:connector-curvature="0" />
        </g>
        <g
           id="XMLID_835_">
          <path
             d="m 200.5,0 c 0,0 80,60 80,80 0,20 -50,60 -50,60 z"
             style="fill:#78b9eb"
             id="XMLID_836_"
             inkscape:connector-curvature="0" />
        </g>
        <path
           d="m 200.5,0 c 0,0 -70.534,76.551 -54.953,201.559 17.75,5.484 35.402,8.441 54.953,8.441 19.551,0 37.203,-2.957 54.953,-8.441 C 271.034,76.551 200.5,0 200.5,0 Z"
           style="fill:#ff9811"
           id="XMLID_837_"
           inkscape:connector-curvature="0" />
        <g
           id="XMLID_838_">
          <g
             id="XMLID_839_">
            <path
               d="m 200.5,0 v 210 c 19.551,0 37.203,-2.957 54.953,-8.441 C 271.034,76.551 200.5,0 200.5,0 Z"
               style="fill:#ff5023"
               id="XMLID_840_"
               inkscape:connector-curvature="0" />
          </g>
        </g>
      </g>
      <g
         id="g4508" />
      <g
         id="g4510" />
      <g
         id="g4512" />
      <g
         id="g4514" />
      <g
         id="g4516" />
      <g
         id="g4518" />
      <g
         id="g4520" />
      <g
         id="g4522" />
      <g
         id="g4524" />
      <g
         id="g4526" />
      <g
         id="g4528" />
      <g
         id="g4530" />
      <g
         id="g4532" />
      <g
         id="g4534" />
      <g
         id="g4536" />
    </g>
  </g>
</svg>
